<svg width="13" height="13" viewBox="0 0 13 13" fill="none" xmlns="http://www.w3.org/2000/svg">
<path d="M0.563385 1.90935L2.12518 0.34902C2.23535 0.238366 2.3663 0.150568 2.5105 0.0906726C2.6547 0.0307768 2.80932 -3.74238e-05 2.96547 3.41094e-08C3.28369 3.41094e-08 3.58285 0.12465 3.80722 0.34902L5.4878 2.0296C5.59845 2.13977 5.68625 2.27071 5.74614 2.41492C5.80604 2.55912 5.83685 2.71374 5.83682 2.86988C5.83682 3.18811 5.71217 3.48727 5.4878 3.71164L4.25889 4.94054C4.54655 5.57459 4.94649 6.15139 5.4394 6.64312C5.93108 7.13723 6.50783 7.53862 7.14198 7.82802L8.37088 6.59912C8.48105 6.48847 8.612 6.40067 8.7562 6.34077C8.9004 6.28088 9.05502 6.25006 9.21117 6.2501C9.52939 6.2501 9.82855 6.37475 10.0529 6.59912L11.735 8.27823C11.8458 8.3886 11.9336 8.5198 11.9935 8.66426C12.0534 8.80872 12.0842 8.9636 12.084 9.11999C12.084 9.43821 11.9593 9.73737 11.735 9.96174L10.1761 11.5206C9.81829 11.8799 9.32408 12.0837 8.81669 12.0837C8.70963 12.0837 8.60698 12.0749 8.50579 12.0573C6.52899 11.7318 4.56832 10.6803 2.98599 9.09946C1.40514 7.52007 0.355146 5.56086 0.0251901 3.57819C-0.0745299 2.97254 0.126377 2.34929 0.563385 1.90935Z" fill="white"/>
</svg>
